<svg xmlns="http://www.w3.org/2000/svg" xmlns:xlink="http://www.w3.org/1999/xlink" width="811.464" height="1080.232" viewBox="0 0 811.464 1080.232">
  <defs>
    <clipPath id="clip-path">
      <path id="Path_4" data-name="Path 4" d="M1109.6,0h810.141l1.035,1079.763-811.464.469Z" fill="none" stroke="#707070" stroke-width="1"/>
    </clipPath>
  </defs>
  <g id="Background" transform="translate(-1109.313)" clip-path="url(#clip-path)">
    <g id="Group_1" data-name="Group 1">
      <path id="Path_1" data-name="Path 1" d="M64.741,1.681,879.657,22.846c35.756.929,65.494,30.614,66.423,66.305l23.273,894.474c.929,35.691-27.3,63.871-63.06,62.942L91.377,1025.4c-35.756-.929-65.494-30.615-66.423-66.305L1.681,64.624C.753,28.933,28.986.753,64.741,1.681Z" transform="matrix(0.719, -0.695, 0.695, 0.719, 1208.361, 232.391)" fill="rgba(7,75,194,0.65)"/>
      <path id="Path_3" data-name="Path 3" d="M64.741,1.681,879.657,22.846c35.756.929,65.494,30.614,66.423,66.305l23.273,894.474c.929,35.691-27.3,63.871-63.06,62.942L91.377,1025.4c-35.756-.929-65.494-30.615-66.423-66.305L1.681,64.624C.753,28.933,28.986.753,64.741,1.681Z" transform="matrix(0.719, -0.695, 0.695, 0.719, 1237.808, 795.774)" fill="rgba(8,96,212,0.24)"/>
      <path id="Path_2" data-name="Path 2" d="M110.937,2.013l1146.61,29.475c61.761,1.588,113.128,52.341,114.732,113.36l32.838,1249.22c1.6,61.019-47.163,109.2-108.924,107.611L149.584,1472.2c-61.761-1.588-113.128-52.34-114.732-113.36L2.014,109.624C.41,48.6,49.176.426,110.937,2.013Z" transform="matrix(0.719, -0.695, 0.695, 0.719, 1106.808, 418.245)" fill="#0047d5"/>
    </g>
  </g>
</svg>
